<svg width="49" height="49" viewBox="0 0 49 49" fill="none" xmlns="http://www.w3.org/2000/svg">
<path d="M48.1339 11.2297C47.97 9.60883 47.4892 8.03597 46.719 6.60045C45.9204 5.10093 44.7694 3.818 43.365 2.86212C41.9605 1.84295 40.3189 1.19955 38.596 0.992957C36.8886 0.832886 35.1679 1.09069 33.5824 1.74412C30.8862 2.93897 28.4969 4.73099 26.5949 6.98476C25.4994 8.20985 24.5007 9.51811 23.6077 10.8978L23.1011 10.1641C22.2458 9.13207 21.3113 8.16836 20.3061 7.28173C18.1824 5.28155 15.6138 3.81464 12.812 3.00187C11.0645 2.48852 9.20166 2.52308 7.47442 3.10091C5.74718 3.67874 4.23854 4.77207 3.15173 6.2336C1.32986 8.77927 0.363389 11.8377 0.391655 14.968C0.447564 20.5957 2.20106 26.0753 5.42268 30.6899C8.35939 35.1102 12.1848 38.8702 16.6551 41.7302C17.141 42.0248 17.7196 42.1265 18.2767 42.0153C18.8339 41.9041 19.3291 41.5881 19.6647 41.1297C20.0003 40.6712 20.1519 40.1037 20.0896 39.5389C20.0272 38.9742 19.7554 38.4534 19.3279 38.0793C15.7176 35.1788 12.6382 31.6738 10.2266 27.7202C7.89479 23.9824 6.60974 19.6868 6.50574 15.2825C6.45056 13.4195 6.9822 11.5862 8.02553 10.0418C8.38974 9.47695 8.92627 9.04448 9.55558 8.80849C10.1849 8.5725 10.8735 8.54555 11.5193 8.73164C13.515 9.27778 15.3844 10.2095 17.022 11.4742C18.8588 12.775 20.5565 14.2619 22.0879 15.9113C22.25 16.1579 22.4575 16.3713 22.6993 16.5402C22.9183 16.6839 23.1635 16.783 23.4208 16.8318C23.6782 16.8805 23.9426 16.8781 24.199 16.8245C24.4553 16.771 24.6986 16.6674 24.9149 16.5197C25.1312 16.372 25.3162 16.1831 25.4594 15.9637L25.6166 15.7192C26.9107 13.7497 28.4098 11.9227 30.0886 10.2689C31.6006 8.70233 33.4288 7.47562 35.4516 6.67032C36.2252 6.3393 37.0743 6.22458 37.908 6.33842C38.7418 6.45226 39.529 6.79037 40.1856 7.31667C40.9018 7.8437 41.4925 8.52267 41.9153 9.3049C42.3381 10.0871 42.5826 10.9532 42.6313 11.8411C42.7845 14.0305 42.5237 16.2292 41.8626 18.322C41.1979 20.6072 40.3448 22.8334 39.3122 24.9776C37.2284 29.351 34.6242 33.4568 31.556 37.2058C31.1744 37.6886 30.9919 38.2991 31.0458 38.9121C31.0998 39.5251 31.3861 40.0943 31.8462 40.503C32.3063 40.9117 32.9052 41.129 33.5204 41.1104C34.1355 41.0917 34.7202 40.8385 35.1546 40.4026C38.79 36.4869 41.8434 32.0686 44.2209 27.2835C45.4611 24.8758 46.4673 22.3545 47.2256 19.7545C48.0586 16.9946 48.3667 14.1031 48.1339 11.2297Z" fill="#D07CC6"/>
<path d="M26.2805 48.4383C25.8245 48.4364 25.3799 48.2963 25.0052 48.0365L21.2145 45.4686C20.7141 45.1304 20.3686 44.6072 20.254 44.0143C20.1393 43.4213 20.2649 42.8071 20.6031 42.3067C20.9413 41.8064 21.4644 41.4608 22.0574 41.3462C22.6504 41.2315 23.2646 41.3571 23.7649 41.6953L26.0708 43.25L27.8177 41.7128C28.2692 41.3095 28.8612 41.1 29.4658 41.1294C30.0704 41.1588 30.6392 41.4248 31.0494 41.87C31.2529 42.09 31.4105 42.3484 31.5129 42.63C31.6153 42.9116 31.6605 43.2108 31.6458 43.5101C31.6312 43.8095 31.557 44.1028 31.4276 44.3731C31.2982 44.6434 31.1162 44.8852 30.8922 45.0843L27.8177 47.8443C27.3951 48.2235 26.8482 48.4348 26.2805 48.4383Z" fill="#FF5F4E"/>
</svg>
